<svg width="100" height="30" viewBox="0 0 100 30" fill="none" xmlns="http://www.w3.org/2000/svg">
<path d="M3.00684 28.7334V11.7334H6.89794V28.7334H3.00684ZM10.4431 28.7334V11.7334H26.2378C27.2754 11.7334 28.1497 11.8034 28.8606 11.9434C29.5716 12.0834 30.148 12.3182 30.59 12.6477C31.0319 12.9772 31.349 13.4219 31.5411 13.982C31.7333 14.5421 31.8293 15.2421 31.8293 16.0823V17.1447C31.8293 18.7591 30.9551 19.6898 29.2065 19.9369C30.0712 20.0358 30.8013 20.3322 31.397 20.8264C31.9927 21.3206 32.2905 22.0783 32.2905 23.0997V24.2116C32.2905 25.0847 32.1752 25.8136 31.9446 26.3984C31.7141 26.9832 31.3538 27.4485 30.8638 27.7944C30.3738 28.1404 29.7445 28.3834 28.9759 28.5234C28.2073 28.6634 27.2946 28.7334 26.2378 28.7334H10.4431ZM28.4283 23.1986C28.4283 22.5726 28.289 22.1319 28.0104 21.8766C27.7317 21.6212 27.1889 21.4936 26.3819 21.4936H14.3341V25.3977H26.2378C27.1025 25.3977 27.6837 25.2783 27.9815 25.0393C28.2794 24.8005 28.4283 24.3928 28.4283 23.8162V23.1986ZM27.9671 16.5517C27.9671 16.0081 27.8374 15.6293 27.578 15.4151C27.3186 15.201 26.8719 15.0939 26.2378 15.0939H14.3341V18.7755H26.2666C26.8815 18.7755 27.3186 18.6561 27.578 18.4173C27.8374 18.1784 27.9671 17.7707 27.9671 17.1942V16.5517ZM53.331 28.7334L45.4912 22.136L37.9686 28.7334H32.8093L43.0413 19.9616L32.9823 11.7334H38.4009L45.6065 17.886L52.6969 11.7334H58.0867L48.0565 20.1593L58.4326 28.7334H53.331Z" fill="#C54031"/>
<path d="M60.9253 7.04985C61.499 7.35796 61.9872 7.57172 62.3895 7.69692C62.7896 7.82027 63.181 7.88194 63.5635 7.88194C63.9482 7.88194 64.2583 7.80669 64.4935 7.65837C64.7266 7.51014 64.843 7.31941 64.843 7.08638C64.843 6.7532 64.4275 6.37562 63.5943 5.95965C63.4602 5.8922 63.3568 5.83823 63.2843 5.8017L62.6533 5.48964C62.0399 5.18537 61.5848 4.84055 61.2902 4.45727C60.9935 4.07398 60.8461 3.63866 60.8461 3.15322C60.8461 2.4945 61.1297 1.95527 61.697 1.53344C62.262 1.11161 62.9941 0.901611 63.891 0.901611C64.2231 0.901611 64.5815 0.936392 64.9662 1.00376C65.3532 1.07122 65.7818 1.17714 66.2545 1.31959V3.2361C65.8038 2.98957 65.3772 2.79885 64.9728 2.66402C64.5682 2.52919 64.2253 2.46182 63.9416 2.46182C63.6272 2.46182 63.381 2.52157 63.2007 2.63905C63.0204 2.75653 62.9303 2.91826 62.9303 3.12054C62.9303 3.26308 62.9831 3.3959 63.0908 3.51925C63.1985 3.64444 63.359 3.75614 63.5745 3.8582L64.6694 4.38788C65.5862 4.83284 66.2018 5.24311 66.5183 5.61877C66.8349 5.99619 66.9932 6.44115 66.9932 6.95733C66.9932 7.75474 66.6833 8.39997 66.0632 8.89119C65.4411 9.38223 64.6188 9.62683 63.5921 9.62683C63.2447 9.62683 62.8666 9.59415 62.4577 9.53055C62.0509 9.46703 61.6002 9.3669 61.1121 9.23207L60.9253 7.04985ZM53.681 3.62893V5.66214C53.681 6.38157 53.8333 6.91984 54.1343 7.27745C54.4355 7.63533 54.8919 7.81457 55.505 7.81457C56.094 7.81457 56.544 7.64672 56.8538 7.3139C57.1635 6.98116 57.2526 6.4966 57.2457 5.85978L57.2218 3.62236L59.4025 3.62008L59.4774 5.68036C59.5201 6.85562 59.3423 8.06618 58.4675 8.75058C57.541 9.47536 56.6261 9.59853 55.4021 9.59853C54.1649 9.59853 53.203 9.2729 52.5161 8.62022C51.8302 7.9685 51.4559 7.00262 51.4559 5.8229V3.63323L53.681 3.62893ZM3.03516 9.36112L4.97436 0.913263H5.13476L8.65906 6.24079L11.9833 0.913263H12.1504L14.1028 9.36112H11.9833L11.1918 5.62446L8.68546 9.66161H8.53596L5.84496 5.56866L5.02486 9.36112H3.03516ZM14.7864 9.36112L19.5507 0.924828H19.6915L24.3502 9.36112H22.0176L21.4262 8.17079H17.6359L17.0313 9.36112H14.7864ZM18.2822 6.76083H20.7357L19.5244 4.19909L18.2822 6.76083ZM24.99 9.36112L28.3449 5.12948L25.0362 1.17907H27.758L29.6838 3.51539L31.4932 1.17907H33.9204L30.9128 4.95996L34.5932 9.36112H31.8495L29.5806 6.58561L27.4304 9.36112H24.99ZM35.4792 9.36112V1.17907H37.7086V9.36112H35.4792ZM39.12 9.36112L41.0591 0.913263H41.2197L44.744 6.24079L48.0681 0.913263H48.2352L50.1875 9.36112H48.0681L47.2766 5.62446L44.7703 9.66161H44.6208L41.9298 5.56866L41.1096 9.36112H39.12Z" fill="#003087"/>
<path fill-rule="evenodd" clip-rule="evenodd" d="M51.4521 1.18896H53.6588V3.083H51.4521V1.18896Z" fill="#C54031"/>
<path fill-rule="evenodd" clip-rule="evenodd" d="M57.2021 1.18896H59.4088V3.083H57.2021V1.18896Z" fill="#C54031"/>
</svg>
