<svg width="12" height="10" viewBox="0 0 12 10" fill="none" xmlns="http://www.w3.org/2000/svg">
<path d="M7.875 5C7.875 5.49728 7.67746 5.97419 7.32583 6.32583C6.97419 6.67746 6.49728 6.875 6 6.875C5.50272 6.875 5.02581 6.67746 4.67417 6.32583C4.32254 5.97419 4.125 5.49728 4.125 5C4.125 4.50272 4.32254 4.02581 4.67417 3.67417C5.02581 3.32254 5.50272 3.125 6 3.125C6.49728 3.125 6.97419 3.32254 7.32583 3.67417C7.67746 4.02581 7.875 4.50272 7.875 5Z" fill="#00733B"/>
<path d="M0 5C0 5 2.25 0.875 6 0.875C9.75 0.875 12 5 12 5C12 5 9.75 9.125 6 9.125C2.25 9.125 0 5 0 5ZM6 7.625C6.69619 7.625 7.36387 7.34844 7.85616 6.85616C8.34844 6.36387 8.625 5.69619 8.625 5C8.625 4.30381 8.34844 3.63613 7.85616 3.14384C7.36387 2.65156 6.69619 2.375 6 2.375C5.30381 2.375 4.63613 2.65156 4.14384 3.14384C3.65156 3.63613 3.375 4.30381 3.375 5C3.375 5.69619 3.65156 6.36387 4.14384 6.85616C4.63613 7.34844 5.30381 7.625 6 7.625Z" fill="#00733B"/>
</svg>
